ExpData
version=1
nRows=12
nColumns=40
inDegrees=yes
Unit are S.I. units (second, meters, Newtons, ...
endheader
time	pelvis_tilt	pelvis_list	pelvis_rotation	pelvis_tx	pelvis_ty	pelvis_tz	hip_flexion_r	hip_adduction_r	hip_rotation_r	knee_angle_r	knee_angle_r_beta	ankle_angle_r	subtalar_angle_r	mtp_angle_r	hip_flexion_l	hip_adduction_l	hip_rotation_l	knee_angle_l	knee_angle_l_beta	ankle_angle_l	subtalar_angle_l	mtp_angle_l	lumbar_extension	lumbar_bending	lumbar_rotation	arm_flex_r	arm_add_r	arm_rot_r	elbow_flex_r	pro_sup_r	wrist_flex_r	wrist_dev_r	arm_flex_l	arm_add_l	arm_rot_l	elbow_flex_l	pro_sup_l	wrist_flex_l	wrist_dev_l	
21.000000	14.795131	-1.547732	3.039497	-0.859028	0.584710	0.266914	45.000000	-10.000000	0.000000	60.000000	1.047200	-5.000000	0.000000	0.000000	45.000000	-10.000000	0.000000	60.000000	1.047200	-5.000000	0.000000	0.000000	-24.444157	-1.884798	5.260168	23.119763	-30.616892	19.921752	129.926596	84.600246	0.000000	0.000000	13.394723	-49.187097	11.631714	104.534607	89.346379	0.000000	0.000000	
21.005000	14.769746	-1.547118	3.049443	-0.858996	0.584771	0.266978	45.000000	-10.000000	0.000000	60.000000	1.047200	-5.000000	0.000000	0.000000	45.000000	-10.000000	0.000000	60.000000	1.047200	-5.000000	0.000000	0.000000	-24.392870	-1.951546	5.281851	24.151953	-30.253572	21.107814	129.719049	84.727149	0.000000	0.000000	13.453834	-49.103572	11.628989	104.544722	89.347109	0.000000	0.000000	
21.010000	14.744625	-1.546557	3.059113	-0.858964	0.584831	0.267042	45.000000	-10.000000	0.000000	60.000000	1.047200	-5.000000	0.000000	0.000000	45.000000	-10.000000	0.000000	60.000000	1.047200	-5.000000	0.000000	0.000000	-24.342677	-2.017075	5.303562	25.181044	-29.871712	22.293138	129.490968	84.847135	0.000000	0.000000	13.510993	-49.019537	11.624271	104.553413	89.347744	0.000000	0.000000	
21.015000	14.719775	-1.546085	3.068562	-0.858933	0.584891	0.267106	45.000000	-10.000000	0.000000	60.000000	1.047200	-5.000000	0.000000	0.000000	45.000000	-10.000000	0.000000	60.000000	1.047200	-5.000000	0.000000	0.000000	-24.293647	-2.081284	5.325456	26.205452	-29.471460	23.475755	129.242505	84.960275	0.000000	0.000000	13.566356	-48.935105	11.617953	104.560844	89.348281	0.000000	0.000000	
21.020000	14.695214	-1.545733	3.077849	-0.858902	0.584949	0.267168	45.000000	-10.000000	0.000000	60.000000	1.047200	-5.000000	0.000000	0.000000	45.000000	-10.000000	0.000000	60.000000	1.047200	-5.000000	0.000000	0.000000	-24.245855	-2.144080	5.347672	27.223695	-29.053052	24.653882	128.973778	85.066611	0.000000	0.000000	13.620062	-48.850417	11.610400	104.567160	89.348723	0.000000	0.000000	
21.025000	14.670948	-1.545537	3.087015	-0.858872	0.585006	0.267230	45.000000	-10.000000	0.000000	60.000000	1.047200	-5.000000	0.000000	0.000000	45.000000	-10.000000	0.000000	60.000000	1.047200	-5.000000	0.000000	0.000000	-24.199376	-2.205378	5.370344	28.234371	-28.616792	25.825914	128.684856	85.166186	0.000000	0.000000	13.672292	-48.765648	11.602010	104.572481	89.349078	0.000000	0.000000	
21.030000	14.646978	-1.545529	3.096089	-0.858843	0.585061	0.267290	45.000000	-10.000000	0.000000	60.000000	1.047200	-5.000000	0.000000	0.000000	45.000000	-10.000000	0.000000	60.000000	1.047200	-5.000000	0.000000	0.000000	-24.154292	-2.265110	5.393565	29.236175	-28.163040	26.990464	128.375730	85.259092	0.000000	0.000000	13.723218	-48.680994	11.593129	104.576928	89.349354	0.000000	0.000000	
21.035000	14.623318	-1.545740	3.105097	-0.858814	0.585115	0.267349	45.000000	-10.000000	0.000000	60.000000	1.047200	-5.000000	0.000000	0.000000	45.000000	-10.000000	0.000000	60.000000	1.047200	-5.000000	0.000000	0.000000	-24.110705	-2.323218	5.417360	30.227921	-27.692181	28.146373	128.046290	85.345479	0.000000	0.000000	13.772939	-48.596655	11.583966	104.580653	89.349561	0.000000	0.000000	
21.040000	14.600001	-1.546197	3.114078	-0.858786	0.585167	0.267407	45.000000	-10.000000	0.000000	60.000000	1.047200	-5.000000	0.000000	0.000000	45.000000	-10.000000	0.000000	60.000000	1.047200	-5.000000	0.000000	0.000000	-24.068730	-2.379658	5.441683	31.208530	-27.204610	29.292650	127.696347	85.425540	0.000000	0.000000	13.821479	-48.512823	11.574574	104.583844	89.349705	0.000000	0.000000	
21.045000	14.577081	-1.546924	3.123078	-0.858757	0.585218	0.267463	45.000000	-10.000000	0.000000	60.000000	1.047200	-5.000000	0.000000	0.000000	45.000000	-10.000000	0.000000	60.000000	1.047200	-5.000000	0.000000	0.000000	-24.028489	-2.434397	5.466460	32.176969	-26.700730	30.428350	127.325671	85.499499	0.000000	0.000000	13.868849	-48.429664	11.564956	104.586687	89.349789	0.000000	0.000000	
21.050000	14.554619	-1.547939	3.132145	-0.858729	0.585267	0.267517	45.000000	-10.000000	0.000000	60.000000	1.047200	-5.000000	0.000000	0.000000	45.000000	-10.000000	0.000000	60.000000	1.047200	-5.000000	0.000000	0.000000	-23.990082	-2.487417	5.491662	33.132183	-26.180966	31.552419	126.934048	85.567618	0.000000	0.000000	13.915186	-48.347322	11.555207	104.589305	89.349818	0.000000	0.000000	
21.055000	14.532680	-1.549265	3.141322	-0.858701	0.585315	0.267570	45.000000	-10.000000	0.000000	60.000000	1.047200	-5.000000	0.000000	0.000000	45.000000	-10.000000	0.000000	60.000000	1.047200	-5.000000	0.000000	0.000000	-23.953580	-2.538716	5.517355	34.073045	-25.645785	32.663603	126.521318	85.630209	0.000000	0.000000	13.960832	-48.265916	11.545634	104.591701	89.349805	0.000000	0.000000	
